<svg xmlns="http://www.w3.org/2000/svg">
    <symbol id="logo" width="43" height="45" viewBox="0 0 43 45" xmlns="http://www.w3.org/2000/svg">
        <path d="M40.2921 15.5377C39.9792 16.0134 39.5171 16.3874 38.9056 16.6597C38.304 16.9172 37.6119 17.0984 36.8294 17.2035C36.0566 17.2939 35.2446 17.3288 34.3933 17.3085C33.542 17.2882 32.7199 17.2232 31.9273 17.1138C31.1346 17.0042 30.4301 16.8756 29.8138 16.728C29.3091 17.2323 28.9101 17.7075 28.6168 18.1535C28.431 18.4361 28.3685 18.6792 28.429 18.883C28.4895 19.0868 28.6663 19.2782 28.9591 19.4574C29.6066 19.8534 30.3661 20.1614 31.2373 20.3816C32.1086 20.6017 33.0392 20.7644 34.0294 20.8696C35.0195 20.9747 35.9934 21.0388 36.9511 21.0617C37.9089 21.0846 38.7902 21.092 39.5953 21.0841C40.4159 21.0855 41.0921 21.0926 41.6242 21.1053C42.1562 21.118 42.484 21.1621 42.6074 21.2375C42.7924 21.3506 42.892 21.4949 42.9063 21.6705C42.9457 21.8406 42.9166 22 42.8188 22.1486C42.7406 22.2676 42.3964 22.3801 41.786 22.4864C41.1911 22.6021 40.4261 22.697 39.491 22.7713C38.5655 22.8307 37.5533 22.8579 36.4541 22.8528C35.3549 22.8476 34.2445 22.794 33.1229 22.6917C32.0165 22.5989 30.9872 22.4383 30.0348 22.2102C29.0977 21.9915 28.3208 21.6937 27.7041 21.3164C26.9025 20.8262 26.4687 20.1544 26.4029 19.3012C26.3371 18.448 26.7052 17.4118 27.5068 16.1927C28.0447 15.375 28.6952 14.6159 29.4585 13.9153C30.2373 13.2243 31.0688 12.6174 31.9529 12.0948C32.862 11.567 33.7512 11.1519 34.6202 10.8494C35.5144 10.5416 36.3437 10.3817 37.1083 10.3697C37.8824 10.3429 38.524 10.4851 39.0327 10.7963C40.004 11.3902 40.596 12.1172 40.8088 12.9768C41.0217 13.8367 40.8495 14.6903 40.2921 15.5377ZM31.4288 15.3079C32.0924 15.3177 32.7812 15.322 33.4954 15.321C34.2094 15.3199 34.8899 15.2878 35.5366 15.2247C36.1834 15.1618 36.7552 15.0318 37.2519 14.8354C37.7739 14.6334 38.1619 14.3392 38.4162 13.9526C38.7779 13.4025 38.6504 12.9389 38.0337 12.5617C37.6483 12.326 37.0834 12.314 36.3388 12.5258C35.6194 12.7322 34.8227 13.0891 33.9483 13.5967C33.0741 14.1044 32.2342 14.6748 31.4288 15.3079Z"/>
        <path d="M22.62 20.7955C22.1241 21.1265 21.6654 21.3261 21.2439 21.3942C20.8225 21.4624 20.4679 21.4541 20.1801 21.3691C19.9073 21.2741 19.7285 21.1695 19.6439 21.0555C19.39 20.7135 19.3056 20.4182 19.3908 20.1695C19.476 19.9208 19.8041 19.6059 20.3752 19.2247C20.7059 19.004 21.1219 18.6411 21.6235 18.1358C22.1294 17.6062 22.6585 16.9867 23.2107 16.2771C23.7523 15.5534 24.2719 14.7696 24.7695 13.926C25.267 13.0824 25.6751 12.224 25.9934 11.3508C26.3117 10.4776 26.4931 9.6319 26.5374 8.81363C26.5864 7.97118 26.4434 7.20337 26.1089 6.51019C25.6094 6.71567 25.1238 6.95462 24.6517 7.22702C24.1841 7.47512 23.7324 7.74478 23.2965 8.03562C21.9738 8.91846 20.7292 9.95163 19.5625 11.1354C18.3852 12.3047 17.2192 13.5199 16.0649 14.7806C16.3161 15.2097 16.5482 15.5982 16.7614 15.9462C16.9747 16.294 17.2114 16.6582 17.4714 17.0388C18.1034 17.981 18.4403 18.6619 18.4821 19.0816C18.5284 19.477 18.4462 19.7449 18.2359 19.8854C17.9052 20.106 17.5122 20.0914 17.0567 19.8412C16.6013 19.591 16.0721 19.0598 15.4691 18.2474C13.5436 15.6535 12.1531 13.2354 11.2978 10.993C10.4424 8.75063 10.1727 6.7673 10.4887 5.04318C10.8047 3.31907 11.7367 1.94029 13.2847 0.907037C14.382 0.174725 15.4375 -0.114154 16.4513 0.0404022C17.4801 0.18492 18.386 0.784506 19.1688 1.83912C19.7084 2.56602 20.1338 3.41161 20.4451 4.37602C20.7458 5.32631 20.8713 6.29752 20.8212 7.29003C21.1741 6.94795 21.5354 6.63214 21.905 6.34287C22.2641 6.03923 22.609 5.77714 22.9396 5.55637C24.0819 4.79404 25.1009 4.38033 25.9967 4.31524C26.8924 4.25027 27.5994 4.56686 28.1179 5.26527C28.7208 6.07752 29.0463 7.00063 29.0944 8.03418C29.1574 9.05781 29.015 10.1226 28.6672 11.2286C28.3345 12.3245 27.8917 13.4085 27.339 14.4807C26.7758 15.5387 26.1822 16.5103 25.5583 17.3958C24.9343 18.2811 24.3498 19.0229 23.8049 19.6211C23.2856 20.2234 22.8906 20.6149 22.62 20.7955ZM14.903 12.8067C16.3598 11.4082 17.372 10.1677 17.9396 9.08552C18.5074 8.0032 18.7389 7.02821 18.6341 6.16027C18.5188 5.27821 18.1649 4.43811 17.5724 3.63997C17.3819 3.38351 17.1411 3.14992 16.8499 2.93934C16.5482 2.71438 16.1954 2.58759 15.792 2.55857C15.3883 2.52955 14.946 2.67556 14.465 2.99659C13.2325 3.81918 12.6373 5.01573 12.6793 6.58626C12.7362 8.14673 13.4775 10.2201 14.903 12.8067Z"/>
        <path d="M3.76453 18.5181C4.24698 17.7739 4.74534 17.1216 5.2596 16.5613C5.74863 16.0067 6.29513 15.4965 6.89898 15.0309C7.48732 14.556 8.17168 14.0661 8.95207 13.5612C9.1961 13.4177 9.44905 13.3104 9.71078 13.2394C9.95701 13.1591 10.1735 13.1746 10.3603 13.2858C10.5936 13.4249 10.751 13.7146 10.8322 14.155C10.9075 14.5713 10.868 14.8985 10.7137 15.1367C10.5496 15.3897 10.2536 15.6467 9.82546 15.9076C9.38787 16.1833 8.88047 16.5001 8.30337 16.8579C7.71064 17.2064 7.12312 17.6301 6.54068 18.1292C5.94863 18.6431 5.42106 19.2573 4.95782 19.9718C4.45604 20.7458 4.31776 21.6745 4.54301 22.7579C4.76838 23.8412 5.3714 24.9742 6.35219 26.1568C7.31735 27.3301 8.67923 28.4406 10.4378 29.4881C10.967 29.8033 11.5603 30.1361 12.2176 30.4864C12.881 30.8609 13.585 31.239 14.3299 31.6209C13.7522 30.7816 13.2112 29.9021 12.7071 28.9828C12.1932 28.0783 11.7717 27.1979 11.4423 26.3415C11.1034 25.4999 10.9035 24.7102 10.8425 23.9724C10.7875 23.2587 10.924 22.6488 11.2521 22.1427C11.667 21.5026 12.1374 21.1432 12.6631 21.0643C13.1888 20.9854 13.8097 21.1592 14.5256 21.5857C15.2725 22.0307 16.0481 22.5648 16.8521 23.1882C17.6561 23.8116 18.4485 24.4692 19.2294 25.1614C20.0163 25.8778 20.7372 26.5961 21.392 27.3163C22.0469 28.0364 22.5832 28.7067 23.0009 29.3269C23.2156 29.6612 23.2266 29.9771 23.0336 30.2748C22.8985 30.4833 22.6514 30.6148 22.2926 30.6691C21.9395 30.7478 21.584 30.6804 21.2262 30.4672C20.9459 30.3004 20.5877 30.0043 20.1514 29.5794C19.7149 29.1544 19.2278 28.6578 18.6899 28.0899C18.1522 27.5219 17.5832 26.9353 16.9831 26.3303C16.3986 25.7345 15.8026 25.1732 15.1949 24.6462C14.603 24.1284 14.0268 23.7027 13.4665 23.369C13.2331 23.2299 13.0198 23.3092 12.8268 23.6069C12.7207 23.7707 12.7267 24.0941 12.8451 24.5772C12.9692 25.0845 13.1674 25.6771 13.4397 26.3552C13.7181 27.0574 14.0429 27.7875 14.4145 28.5454C14.7921 29.3272 15.1714 30.0898 15.5528 30.8326C15.9496 31.5849 16.3257 32.2525 16.6812 32.8357C16.8153 32.895 16.9369 32.9571 17.0458 33.022C17.1547 33.087 17.2559 33.1472 17.3493 33.2028C18.1119 33.657 18.5382 34.0142 18.6285 34.2744C18.7246 34.5585 18.6908 34.8272 18.5267 35.0803C18.2469 35.512 17.9478 35.7568 17.6297 35.8149C17.3116 35.873 16.9035 35.7538 16.4056 35.4571C16.2188 35.3459 16.031 35.203 15.8421 35.0286C15.6687 34.8634 15.4212 34.6128 15.0997 34.2769C13.793 33.6636 12.6253 33.1021 11.5965 32.5925C10.5583 32.0978 9.54097 31.5538 8.54496 30.9605C6.66179 29.8386 5.21584 28.575 4.20718 27.1693C3.18868 25.7787 2.636 24.3352 2.5489 22.839C2.45219 21.3576 2.8574 19.9174 3.76453 18.5181Z"/>
        <path d="M21.6975 24.3233C21.7951 23.8213 22.1814 23.4242 22.8565 23.1321C23.5316 22.84 24.34 22.7775 25.2819 22.9447C26.3143 23.128 27.394 23.4539 28.5209 23.9225C29.6445 24.4085 30.7743 24.9582 31.9106 25.5718C33.0648 26.1886 34.1756 26.7887 35.2426 27.372C35.4614 27.5004 35.6098 27.6521 35.6882 27.8272C35.7814 28.0228 35.7943 28.2938 35.7271 28.6401C35.606 29.2633 35.2284 29.5187 34.5945 29.4062C34.4496 29.3804 34.137 29.2532 33.6567 29.0248C33.1765 28.7963 32.5869 28.5035 31.888 28.1467C31.1857 27.8072 30.4218 27.4477 29.5961 27.0683C28.7885 26.6922 27.9668 26.3404 27.131 26.013C26.2952 25.6856 25.5128 25.4214 24.7837 25.2202C25.0378 25.5518 25.4481 25.9471 26.0148 26.4059C26.5781 26.8819 27.2179 27.3984 27.9342 27.9553C28.6684 28.5155 29.3995 29.093 30.1271 29.6878C30.8729 30.2858 31.5462 30.8708 32.147 31.4432C32.7626 32.036 33.2366 32.5858 33.5691 33.0925C33.9164 33.6198 34.053 34.0738 33.9791 34.4547C33.8715 35.0087 33.5995 35.444 33.1632 35.7605C32.7416 36.0977 32.067 36.2913 31.1392 36.3416C30.226 36.4122 28.9724 36.3062 27.3785 36.0233C26.5272 35.8722 25.7151 35.8087 24.9422 35.8326C24.1659 35.8739 23.5161 36.0362 22.9926 36.3194C22.484 36.6231 22.1724 37.0694 22.058 37.658C21.8866 38.5408 21.8965 39.3574 22.088 40.1078C22.2976 40.8613 22.5619 41.5261 22.881 42.1022C23.2148 42.6987 23.511 43.1989 23.7698 43.603C24.0467 44.0105 24.1666 44.3093 24.1296 44.4997C24.0524 44.8979 23.7963 45.0584 23.3615 44.9812C23.1804 44.9491 22.9158 44.7678 22.5679 44.4374C22.2345 44.1276 21.8671 43.7042 21.4656 43.1672C21.0787 42.6509 20.7143 42.0668 20.3725 41.4152C20.0455 40.784 19.7992 40.1225 19.6339 39.4305C19.4651 38.7558 19.4429 38.0982 19.5674 37.4576C19.7995 36.2631 20.2341 35.3284 20.871 34.6534C21.5048 33.9958 22.4184 33.5848 23.612 33.4207C24.8023 33.2737 26.3393 33.3674 28.223 33.7017C29.2555 33.885 30.0189 33.9577 30.5134 33.9202C31.0227 33.9031 31.3873 33.7619 31.6076 33.4965C31.2675 33.2212 30.7763 32.8565 30.1337 32.4022C29.5093 31.9511 28.8136 31.4335 28.0464 30.8497C27.2758 30.2832 26.5013 29.6889 25.7225 29.0673C24.9587 28.466 24.26 27.8674 23.6262 27.2714C22.9926 26.6754 22.4913 26.1207 22.1225 25.6076C21.772 25.0977 21.6303 24.6695 21.6975 24.3233Z"/>
    </symbol>
</svg>
